<svg width="21" height="20" viewBox="0 0 21 20" fill="none" xmlns="http://www.w3.org/2000/svg">
<path opacity="0.3" d="M10.5 2C6.09 2 2.5 5.59 2.5 10C2.5 14.41 6.09 18 10.5 18C14.91 18 18.5 14.41 18.5 10C18.5 5.59 14.91 2 10.5 2ZM9.5 8V4H11.5V8H14.5L10.5 12L6.5 8H9.5ZM15.5 15H5.5V13H15.5V15Z" fill="#F16532"/>
<path d="M14.5 8H11.5V4H9.5V8H6.5L10.5 12L14.5 8Z" fill="#F16532"/>
<path d="M15.5 13H5.5V15H15.5V13Z" fill="#F16532"/>
<path d="M10.5 0C4.99 0 0.5 4.49 0.5 10C0.5 15.51 4.99 20 10.5 20C16.01 20 20.5 15.51 20.5 10C20.5 4.49 16.01 0 10.5 0ZM10.5 18C6.09 18 2.5 14.41 2.5 10C2.5 5.59 6.09 2 10.5 2C14.91 2 18.5 5.59 18.5 10C18.5 14.41 14.91 18 10.5 18Z" fill="#F16532"/>
</svg>
