<svg width="16" height="16" viewBox="0 0 16 16" fill="none" xmlns="http://www.w3.org/2000/svg">
<path d="M12.6666 8.6666C12.4898 8.6666 12.3202 8.73683 12.1952 8.86186C12.0702 8.98688 11.9999 9.15645 11.9999 9.33326V9.5866L11.0133 8.59993C10.6649 8.25429 10.194 8.06035 9.70325 8.06035C9.2125 8.06035 8.74164 8.25429 8.39325 8.59993L7.92659 9.0666L6.27325 7.41326C5.92 7.077 5.45096 6.88945 4.96325 6.88945C4.47554 6.88945 4.00651 7.077 3.65325 7.41326L2.66659 8.39993V4.6666C2.66659 4.48979 2.73682 4.32022 2.86185 4.19519C2.98687 4.07017 3.15644 3.99993 3.33325 3.99993H7.99992C8.17673 3.99993 8.3463 3.92969 8.47132 3.80467C8.59635 3.67964 8.66659 3.51008 8.66659 3.33326C8.66659 3.15645 8.59635 2.98688 8.47132 2.86186C8.3463 2.73684 8.17673 2.6666 7.99992 2.6666H3.33325C2.80282 2.6666 2.29411 2.87731 1.91904 3.25238C1.54397 3.62746 1.33325 4.13616 1.33325 4.6666V12.6666C1.33325 13.197 1.54397 13.7057 1.91904 14.0808C2.29411 14.4559 2.80282 14.6666 3.33325 14.6666H11.3333C11.8637 14.6666 12.3724 14.4559 12.7475 14.0808C13.1225 13.7057 13.3333 13.197 13.3333 12.6666V9.33326C13.3333 9.15645 13.263 8.98688 13.138 8.86186C13.013 8.73683 12.8434 8.6666 12.6666 8.6666ZM3.33325 13.3333C3.15644 13.3333 2.98687 13.263 2.86185 13.138C2.73682 13.013 2.66659 12.8434 2.66659 12.6666V10.2866L4.59992 8.35326C4.69786 8.25993 4.82796 8.20787 4.96325 8.20787C5.09854 8.20787 5.22864 8.25993 5.32659 8.35326L7.43992 10.4666L10.3066 13.3333H3.33325ZM11.9999 12.6666C11.999 12.7942 11.9569 12.9181 11.8799 13.0199L8.87325 9.99993L9.33992 9.53326C9.38771 9.48448 9.44476 9.44573 9.50772 9.41927C9.57069 9.39282 9.63829 9.37919 9.70659 9.37919C9.77488 9.37919 9.84249 9.39282 9.90545 9.41927C9.96841 9.44573 10.0255 9.48448 10.0733 9.53326L11.9999 11.4733V12.6666ZM15.1399 2.85993L13.1399 0.859931C13.0765 0.799237 13.0018 0.75166 12.9199 0.719931C12.7576 0.653252 12.5756 0.653252 12.4133 0.719931C12.3314 0.75166 12.2567 0.799237 12.1933 0.859931L10.1933 2.85993C10.1311 2.92209 10.0818 2.99588 10.0481 3.0771C10.0145 3.15831 9.99719 3.24536 9.99719 3.33326C9.99719 3.5108 10.0677 3.68106 10.1933 3.8066C10.3188 3.93213 10.4891 4.00266 10.6666 4.00266C10.8441 4.00266 11.0144 3.93213 11.1399 3.8066L11.9999 2.93993V6.6666C11.9999 6.84341 12.0702 7.01298 12.1952 7.138C12.3202 7.26303 12.4898 7.33326 12.6666 7.33326C12.8434 7.33326 13.013 7.26303 13.138 7.138C13.263 7.01298 13.3333 6.84341 13.3333 6.6666V2.93993L14.1933 3.8066C14.2552 3.86908 14.329 3.91868 14.4102 3.95252C14.4914 3.98637 14.5786 4.0038 14.6666 4.0038C14.7546 4.0038 14.8417 3.98637 14.923 3.95252C15.0042 3.91868 15.0779 3.86908 15.1399 3.8066C15.2024 3.74462 15.252 3.67089 15.2858 3.58965C15.3197 3.50841 15.3371 3.42127 15.3371 3.33326C15.3371 3.24526 15.3197 3.15812 15.2858 3.07688C15.252 2.99564 15.2024 2.92191 15.1399 2.85993Z" fill="#101623"/>
</svg>
