<svg width="12" height="3" viewBox="0 0 12 3" fill="none" xmlns="http://www.w3.org/2000/svg">
<path d="M2.00008 0.166748C1.26675 0.166748 0.666748 0.766748 0.666748 1.50008C0.666748 2.23341 1.26675 2.83341 2.00008 2.83341C2.73341 2.83341 3.33341 2.23341 3.33341 1.50008C3.33341 0.766748 2.73341 0.166748 2.00008 0.166748ZM10.0001 0.166748C9.26675 0.166748 8.66675 0.766748 8.66675 1.50008C8.66675 2.23341 9.26675 2.83341 10.0001 2.83341C10.7334 2.83341 11.3334 2.23341 11.3334 1.50008C11.3334 0.766748 10.7334 0.166748 10.0001 0.166748ZM6.00008 0.166748C5.26675 0.166748 4.66675 0.766748 4.66675 1.50008C4.66675 2.23341 5.26675 2.83341 6.00008 2.83341C6.73341 2.83341 7.33341 2.23341 7.33341 1.50008C7.33341 0.766748 6.73341 0.166748 6.00008 0.166748Z" fill="#616161"/>
</svg>
